# xmcd
#
# Track frame offsets:
#	150
#	17382
#	34062
#	51600
#	68807
#	81367
#	93947
#	107225
#	119865
#	134610
#	146192
#	157582
#
# Disc length: 2316 seconds
#
# Revision: 2
# Processed by: cddbd v1.5.1PL0 Copyright (c) Steve Scherf et al.
# Submitted via: dBpowerAMP V4.0
#
DISCID=aa090a0c
DTITLE=Ray Price - 36 All-Time Favorites, Disc 3
DYEAR=2000
DGENRE=Country
TTITLE0=For The Good Times
TTITLE1=I Won't Mention It Again
TTITLE2=She's Got To Be A Saint
TTITLE3=You're The Best Thing That Ever Happened To Me
TTITLE4=The Lonesomest Lonesome
TTITLE5=I'd Rather Be Sorry
TTITLE6=You Wouldn't Know Love
TTITLE7=If You Ever Change Your Mind
TTITLE8=Sweetheart Of The Year
TTITLE9=Make The World Go Away
TTITLE10=Raining In My Heart
TTITLE11=Help Me
EXTD=
EXTT0=
EXTT1=
EXTT2=
EXTT3=
EXTT4=
EXTT5=
EXTT6=
EXTT7=
EXTT8=
EXTT9=
EXTT10=
EXTT11=
PLAYORDER=
